<svg xmlns="http://www.w3.org/2000/svg" xmlns:xlink="http://www.w3.org/1999/xlink" version="1.1" width="1080" height="1080" viewBox="0 0 1080 1080" xml:space="preserve">
<g transform="matrix(16.89 0 0 16.89 539.49 539.49)">
<path id="background" style="stroke: none; stroke-opacity: 0; stroke-width: 0; stroke-dasharray: none; stroke-linecap: butt; stroke-dashoffset: 0; stroke-linejoin: miter; stroke-miterlimit: 4; fill-rule: nonzero; opacity: 1;" vector-effect="non-scaling-stroke" transform=" translate(-32, -32)" d="M 0 16 Q 0 0 16 0 L 48 0 Q 64 0 64 16 L 64 48 Q 64 64 48 64 L 16 64 Q 0 64 0 48" stroke-linecap="round"/>
</g>
<g transform="matrix(3.67 0 0 3.67 540 540)">
<path id="text" style="stroke: none; stroke-opacity: 0; stroke-width: 0; stroke-dasharray: none; stroke-linecap: butt; stroke-dashoffset: 0; stroke-linejoin: miter; stroke-miterlimit: 4; fill-rule: nonzero; opacity: 0.95;" vector-effect="non-scaling-stroke" transform=" translate(-64.4, -94.9)" d="M 127.2 149.8 L 109.6 149.8 C 106.61858204861952 149.8200919660168 103.64165750085262 149.56534783233295 100.707 149.039 Q 95.728 148.109 91.84 146.045 C 89.80568725381457 144.97447583136295 87.93919850116535 143.61166951286728 86.3 142 C 83.34122096736691 139.02400731534135 81.18180701052987 135.3490823846553 80.022 131.316 Q 78.809 127.337 78.503 122.532 C 78.43339503311402 121.42270410004392 78.3990443783845 120.31147709461867 78.4 119.20000000000003 L 78.4 67.8 L 63.6 67.8 L 63.6 44.8 L 71 44.8 C 71.95042965598137 44.80584195547781 72.89999870574044 44.74166833437476 73.84099999999998 44.60799999999999 Q 77.244 44.101 78.901 42.262 C 79.00572024598107 42.145598004942926 79.10547586437168 42.024823644215836 79.2 41.9 C 79.8609164207262 41.008400499680306 80.36295477625899 40.00939830029464 80.684 38.947 Q 81.4 36.68 81.4 33.6 L 81.4 16.4 L 108 16.4 L 108 44.8 L 128.8 44.8 L 128.8 67.8 L 108 67.8 L 108 126.8 L 127.2 126.8 L 127.2 149.8 Z M 15.6 166.8 L 15.6 44.8 L 45.2 44.8 L 45.2 161 C 45.2185788937117 163.78029521513452 44.978207812696596 166.55627990006099 44.482 169.29199999999997 Q 42.958 177.371 38.2 182.4 C 35.97840256549383 184.69076638083106 33.262568233170406 186.44340304567052 30.260000000000005 187.524 Q 26.881 188.804 22.665 189.365 C 20.322119104415904 189.66510859932856 17.962000721389877 189.810423743931 15.599999999999994 189.8 L 0 189.8 L 0 166.8 L 15.6 166.8 Z M 13.2 19 L 13.2 14.6 Q 13.2 8.2 17.3 4.1 C 18.573713556933576 2.8595025119567574 20.101086819460058 1.9097131076963758 21.776999999999994 1.3160000000000025 Q 25.302 0 30.4 0 C 31.964261032031242 -0.008509588099980396 33.52696339298351 0.10012747442611739 35.07499999999999 0.32500000000000284 Q 40.553 1.154 43.5 4.1 C 45.88439352061397 6.48117619001441 47.31864938202488 9.650120784153092 47.534 13.013000000000009 C 47.57846795502851 13.540826413403883 47.60048781562297 14.070303970425353 47.6 14.599999999999998 L 47.6 19 Q 47.6 25.4 43.5 29.5 C 42.22638290287495 30.740857838998572 40.69900245270941 31.69099287444888 39.023 32.285 Q 35.498 33.6 30.4 33.6 C 28.835763983718337 33.60884072058729 27.273061752242278 33.50053793491922 25.725 33.27600000000001 Q 20.247 32.447 17.3 29.5 C 14.915827178448 27.119077481861947 13.481589150947357 23.95052782864289 13.265999999999996 20.588 C 13.221503732709266 20.059841293232168 13.199483847098431 19.53002950005039 13.199999999999994 19.000000000000007 Z" stroke-linecap="round"/>
</g>
</svg>